<svg xmlns="http://www.w3.org/2000/svg" viewBox="0 0 32 32"><rect width="32" height="32" rx="7.5" fill="#16181d"/><rect x="3.6" y="3.6" width="4.9" height="4.9" rx="1.2" fill="#6f84ff" fill-opacity="1"/><rect x="10.2" y="3.6" width="4.9" height="4.9" rx="1.2" fill="#f4f1ea" fill-opacity="0.16"/><rect x="16.9" y="3.6" width="4.9" height="4.9" rx="1.2" fill="#f4f1ea" fill-opacity="0.16"/><rect x="23.4" y="3.6" width="4.9" height="4.9" rx="1.2" fill="#f4f1ea" fill-opacity="0.16"/><rect x="3.6" y="10.2" width="4.9" height="4.9" rx="1.2" fill="#f4f1ea" fill-opacity="1"/><rect x="10.2" y="10.2" width="4.9" height="4.9" rx="1.2" fill="#6f84ff" fill-opacity="1"/><rect x="16.9" y="10.2" width="4.9" height="4.9" rx="1.2" fill="#f4f1ea" fill-opacity="0.16"/><rect x="23.4" y="10.2" width="4.9" height="4.9" rx="1.2" fill="#f4f1ea" fill-opacity="0.16"/><rect x="3.6" y="16.9" width="4.9" height="4.9" rx="1.2" fill="#f4f1ea" fill-opacity="1"/><rect x="10.2" y="16.9" width="4.9" height="4.9" rx="1.2" fill="#f4f1ea" fill-opacity="1"/><rect x="16.9" y="16.9" width="4.9" height="4.9" rx="1.2" fill="#6f84ff" fill-opacity="1"/><rect x="23.4" y="16.9" width="4.9" height="4.9" rx="1.2" fill="#f4f1ea" fill-opacity="0.16"/><rect x="3.6" y="23.4" width="4.9" height="4.9" rx="1.2" fill="#f4f1ea" fill-opacity="1"/><rect x="10.2" y="23.4" width="4.9" height="4.9" rx="1.2" fill="#f4f1ea" fill-opacity="1"/><rect x="16.9" y="23.4" width="4.9" height="4.9" rx="1.2" fill="#f4f1ea" fill-opacity="1"/><rect x="23.4" y="23.4" width="4.9" height="4.9" rx="1.2" fill="#6f84ff" fill-opacity="1"/></svg>