<svg xmlns="http://www.w3.org/2000/svg" viewBox="0 0 32 32"><rect width="32" height="32" rx="8" fill="#16181d"/><path fill="#f4f1ea" d="M6.22 23.76Q5.91 23.76 5.91 23.53Q5.91 23.34 6.18 23.28L6.67 23.19Q7.38 23.07 7.38 22.37V10.03Q7.38 9.59 7.24 9.44Q7.11 9.29 6.67 9.21L6.18 9.12Q5.91 9.06 5.91 8.87Q5.91 8.64 6.22 8.64H10.47Q12.1 8.64 13.3 9.6Q14.5 10.55 15.15 12.27Q15.8 14 15.8 16.26Q15.8 18.55 15.12 20.23Q14.44 21.91 13.2 22.84Q11.96 23.76 10.26 23.76ZM10.34 23.21Q12.21 23.21 13.19 21.43Q14.16 19.64 14.16 16.26Q14.16 12.9 13.23 11.04Q12.29 9.19 10.47 9.19Q8.87 9.19 8.87 10.72V21.68Q8.87 22.52 9.22 22.87Q9.56 23.21 10.34 23.21Z"/><path fill="#9fb0ff" d="M15.44 23.76Q15.15 23.76 15.15 23.55Q15.15 23.32 15.57 23.26L15.99 23.19Q16.45 23.13 16.62 22.97Q16.79 22.82 16.89 22.37L19.75 10.03Q19.85 9.61 19.75 9.45Q19.64 9.29 19.22 9.21L18.8 9.12Q18.53 9.06 18.53 8.89Q18.53 8.64 18.91 8.64H22.92Q24.33 8.64 25.21 9.42Q26.09 10.19 26.09 11.43Q26.09 12.61 25.25 13.66Q24.41 14.71 23 15.19Q22.9 15.21 22.9 15.29Q22.9 15.36 23 15.4Q24.1 15.8 24.66 16.68Q25.23 17.57 25.23 18.74Q25.23 20.13 24.49 21.27Q23.76 22.42 22.51 23.09Q21.26 23.76 19.73 23.76ZM21.2 15.13Q22.12 15.13 22.89 14.65Q23.65 14.16 24.12 13.33Q24.58 12.5 24.58 11.52Q24.58 10.4 24.02 9.78Q23.47 9.17 22.48 9.17Q21.39 9.17 21.2 10.01L20.29 13.97Q20.15 14.6 20.36 14.87Q20.57 15.13 21.2 15.13ZM19.79 23.24Q20.9 23.24 21.79 22.64Q22.67 22.04 23.18 20.99Q23.7 19.94 23.7 18.64Q23.7 17.21 23.04 16.43Q22.37 15.65 21.18 15.65Q19.87 15.65 19.64 16.77L18.49 21.79Q18.15 23.24 19.79 23.24Z"/></svg>